<?xml version="1.0" standalone="no"?>
<!DOCTYPE svg PUBLIC "-//W3C//DTD SVG 20010904//EN"
 "http://www.w3.org/TR/2001/REC-SVG-20010904/DTD/svg10.dtd">
<svg version="1.0" xmlns="http://www.w3.org/2000/svg"
 width="512.000000pt" height="512.000000pt" viewBox="0 0 512.000000 512.000000"
 preserveAspectRatio="xMidYMid meet">

<g transform="translate(0.000000,512.000000) scale(0.100000,-0.100000)"
fill="#000000" stroke="none">
<path d="M1243 5100 c-59 -36 -63 -55 -63 -302 0 -199 2 -226 18 -251 28 -41
52 -56 105 -63 l47 -7 0 -73 0 -74 -117 0 c-219 0 -320 -32 -431 -134 -73 -68
-127 -167 -142 -261 -13 -81 -13 -3459 0 -3540 30 -188 197 -354 386 -385 80
-13 2949 -13 3028 0 133 22 268 116 334 234 60 106 62 127 62 737 0 545 0 556
-20 577 -30 32 -82 30 -109 -4 -21 -26 -21 -36 -21 -485 l0 -459 -875 0 c-749
0 -880 -2 -904 -15 -47 -24 -56 -78 -18 -113 l23 -22 888 0 888 0 -7 -37 c-18
-101 -90 -194 -184 -240 l-56 -28 -1510 0 -1510 0 -55 26 c-68 32 -114 70
-146 121 -25 39 -55 137 -47 151 2 4 329 7 727 7 l723 0 21 23 c36 38 28 88
-19 112 -24 13 -135 15 -744 15 l-715 0 0 1555 0 1555 1268 0 1267 -1 460
-432 c400 -376 463 -440 490 -491 l30 -60 5 -452 c5 -426 6 -453 24 -473 26
-29 79 -28 106 1 20 22 21 29 18 483 -3 408 -5 465 -20 505 -16 41 -18 96 -18
576 0 317 -4 553 -10 585 -23 123 -122 244 -237 291 l-58 23 -610 5 c-574 5
-613 6 -655 24 -39 17 -76 20 -277 24 l-233 4 0 74 0 74 31 0 c45 0 98 29 120
64 17 28 19 53 19 254 0 247 -4 266 -63 302 -31 19 -54 20 -607 20 -553 0
-576 -1 -607 -20z m1127 -235 l0 -105 -520 0 -520 0 0 105 0 105 520 0 520 0
0 -105z m423 -699 c31 -7 74 -25 95 -38 38 -26 264 -234 270 -250 2 -4 -528
-8 -1177 -8 l-1181 0 6 28 c33 149 117 239 251 271 21 5 407 9 858 10 657 1
831 -2 878 -13z m1187 -587 c0 -146 -4 -249 -9 -247 -5 2 -107 95 -228 208
-120 113 -238 225 -263 248 l-45 41 273 1 272 0 0 -251z"/>
<path d="M2339 3337 c-112 -42 -266 -199 -346 -353 -70 -134 -88 -214 -87
-389 0 -105 5 -166 16 -203 8 -29 13 -51 9 -49 -158 84 -272 113 -416 104
-161 -11 -213 -39 -242 -135 -24 -76 -23 -253 0 -341 65 -244 270 -444 517
-507 74 -19 222 -22 290 -6 l45 11 98 -97 97 -97 0 -73 c0 -120 33 -166 106
-148 35 9 54 60 54 148 l0 73 98 97 97 97 45 -11 c68 -16 216 -13 290 6 85 21
213 85 275 137 115 95 204 232 241 369 21 81 24 254 5 328 -16 65 -61 115
-116 131 -22 7 -80 14 -130 18 -144 9 -258 -20 -416 -104 -4 -2 1 20 9 49 23
80 22 333 -1 418 -45 162 -158 338 -280 437 -116 95 -183 118 -258 90z m-21
-426 l-3 -79 -83 65 -82 64 22 32 c12 18 50 59 83 92 l60 60 3 -77 c2 -42 2
-113 0 -157z m233 172 c30 -32 65 -72 77 -89 l21 -31 -42 -34 c-23 -18 -61
-48 -84 -67 l-43 -34 0 156 c0 86 4 156 8 156 5 0 33 -26 63 -57z m195 -428
l6 -70 -128 -80 c-70 -44 -131 -81 -136 -83 -4 -2 -8 46 -8 106 l0 109 118 92
117 91 12 -48 c7 -26 16 -78 19 -117z m-536 65 l110 -84 0 -108 c0 -59 -3
-108 -7 -108 -3 0 -64 37 -136 83 l-129 82 6 69 c8 83 25 158 37 154 4 -2 58
-41 119 -88z m466 -433 c-38 -75 -107 -166 -163 -212 l-33 -27 0 94 0 93 113
70 c61 39 114 67 115 63 2 -4 -12 -41 -32 -81z m-470 17 c58 -37 108 -72 110
-79 3 -6 4 -49 2 -94 l-3 -82 -53 52 c-62 60 -102 116 -143 199 -30 60 -33 70
-24 70 3 0 53 -30 111 -66z m-582 -10 l46 -7 -6 -51 c-10 -84 -10 -84 -70 -25
-31 30 -60 62 -65 72 -8 14 -5 17 19 17 16 0 50 -3 76 -6z m1656 -2 c0 -10
-128 -137 -133 -131 -3 2 -7 32 -11 66 l-7 62 33 4 c61 7 118 7 118 -1z
m-1370 -125 l32 -28 -23 -109 c-13 -61 -26 -110 -29 -110 -3 0 -27 22 -53 48
l-47 48 10 84 c17 138 15 133 48 112 16 -9 43 -30 62 -45z m1086 -48 l14 -103
-47 -48 c-26 -26 -50 -48 -53 -48 -3 0 -16 48 -28 106 -19 88 -21 108 -10 121
17 21 102 83 106 78 2 -2 10 -50 18 -106z m-1469 -70 c-6 -4 -34 -9 -62 -11
l-50 -3 -7 45 c-4 25 -4 58 -1 74 l5 28 64 -63 c43 -42 60 -66 51 -70z m1873
109 c0 -13 -3 -47 -6 -76 l-7 -52 -51 6 c-85 10 -85 9 -16 79 36 36 68 65 72
65 4 0 8 -10 8 -22z m-1303 -368 l5 -85 -41 40 -40 40 15 70 c8 39 18 77 21
85 10 28 35 -63 40 -150z m663 76 l17 -75 -40 -38 -39 -38 5 80 c6 76 25 160
35 150 2 -2 12 -38 22 -79z m-1025 -6 c27 -27 47 -51 44 -53 -2 -2 -51 -14
-108 -26 -82 -17 -107 -19 -118 -9 -24 20 -75 99 -68 106 5 5 136 27 185 31 9
0 38 -21 65 -49z m552 25 l33 -20 0 -190 0 -190 -45 45 c-44 44 -45 45 -34 85
7 24 10 90 7 168 -3 70 -2 126 1 125 3 -2 21 -12 38 -23z m268 -22 c-10 -67
-7 -212 5 -253 10 -33 8 -37 -35 -80 l-45 -45 0 190 1 190 32 22 c46 31 50 28
42 -24z m680 32 c100 -11 99 -10 66 -58 -57 -82 -55 -82 -173 -56 -57 12 -105
24 -107 26 -3 2 17 26 45 54 42 43 53 49 79 45 17 -3 57 -8 90 -11z m-1280
-255 l39 -40 -64 1 c-70 0 -186 32 -160 42 12 6 121 33 140 36 3 1 24 -17 45
-39z m1020 19 c33 -7 64 -15 68 -19 13 -11 -116 -40 -180 -40 l-57 0 39 40
c22 23 46 38 55 36 8 -3 42 -10 75 -17z"/>
</g>
</svg>
